<svg version="1.1" width="479" height="225" xmlns:xlink="http://www.w3.org/1999/xlink" xmlns="http://www.w3.org/2000/svg">
  <defs/>
  <g transform="matrix(1, 0, 0, 1, 80.75, 20)">
    <path stroke="#000000" stroke-opacity="1" stroke-width="1" fill="none" d="M 63.4 1.3 L 63.4 2.1 Q 63.4 2.45 63.6 2.65 Q 63.85 3.2 64.6 3.2 L 65.55 2.85 L 65.55 1.7 L 64.6 1.7 Q 63.6 0.95 63.4 1.3 M 64.6 1.7 L 64.6 1.7 M 57.35 17.65 Q 58.55 9.85 60.95 5.85 Q 61.7 4.55 62.4 3.8 Q 62.4 3.6 62.65 3.4 L 61.45 3.4 Q 61.2 3.4 61.2 3.6 Q 59 4.55 56.35 6.45 Q 51.25 10.25 49.1 11.2 Q 45.45 7 44.5 3.4 Q 44.5 2.65 44.5 2.25 L 44 1.9 Q 43.05 2.45 42.3 3.2 Q 41.1 4.35 39.9 6.25 Q 38.45 8.15 36.25 11.55 Q 34.55 8.15 24.85 4.35 Q 26.55 8.55 29.45 20.1 Q 29.45 20.7 29.7 21.45 Q 29.95 23.15 30.45 26.6 Q 30.7 27.15 30.7 28.3 Q 34.3 29.25 35.55 29.45 Q 36.25 29.6 40.35 29.6 Q 48.85 29.6 55.85 28.1 Q 55.85 27.15 56.1 26.6 Q 56.35 21.45 57.35 17.65 Q 64.1 18.05 68 21.05 Q 72.35 24.5 72.35 30.2 Q 72.35 31.15 70.15 37.6 Q 68.05 43.1 67.75 46.25 L 67.75 47.1 Q 67.75 58.85 80.35 61.15 L 76 61.55 Q 60.7 61.55 55.4 58.7 Q 51.25 60.2 46.65 60.2 L 43.9 60.1 Q 43 60.1 42.2 60 Q 42.1 60.5 42.05 62 Q 42.05 63.35 42.05 65.5 L 42.05 66.65 L 42.05 66.85 Q 42.3 67.4 43.3 68.95 Q 54.2 74.05 59.75 76.35 Q 66.5 79.2 73.05 79.95 M 62.65 3.4 Q 62.9 2.85 63.6 2.65 Q 62.4 2.85 61.45 3.4 M 55.4 58.7 Q 60 56.6 63.15 52.2 Q 64.95 49.65 65.9 46.7 L 66.15 45.95 Q 67.25 42.55 67.25 38.75 Q 67.25 31.7 60.95 28.3 Q 59.5 27.35 56.1 26.6 M 44.5 1.7 L 44.5 1.9 Q 44.95 1.5 44.95 1.15 Q 44.95 0.75 44.5 0.2 Q 43.5 0 43.3 0.35 Q 42.55 0.95 42.3 0.95 L 42.3 1.9 L 44 1.9 Q 44.25 1.9 44.5 1.7 L 44.5 1.7 M 44.5 2.25 L 44.5 1.9 L 44 1.9 M 23.9 56.8 Q 23.4 57.7 18.1 59.65 Q 15.4 60.4 10.1 60.4 Q 5 60.4 0.15 59.8 Q 10.7 57.25 12.05 41.6 Q 12.25 39.95 12.25 38.15 Q 12.3 37.75 12.25 37.3 Q 13.35 21.05 27.55 21.05 Q 28.25 21.05 29.1 21.25 L 29.7 21.45 M 24.85 4.35 L 24.6 4.35 Q 24.15 4.35 23.9 4.35 Q 22.7 4.35 22.7 3.2 Q 22.7 2.65 23.9 2.25 Q 25.1 2.25 25.1 3.05 Q 25.1 4 24.6 4.35 M 26.2 54.7 Q 17.6 49.3 17.6 41.75 Q 17.6 39.75 18.1 38 Q 19.35 32.55 24.6 28.85 Q 25.85 27.9 30.45 26.6 M 42.2 60 Q 33.55 59.15 26.8 55.05 L 26.2 54.7 M 42.05 66.85 L 41.8 67.8 L 41.8 68.2 Q 41.6 69.5 41.35 70.45 Q 40.4 72.9 37 79.95 L 29.95 100.65 Q 30.7 100.85 31.65 101.05 Q 33.85 101.2 38.65 101.2 Q 49.1 101.2 54.4 100.25 Q 56.35 99.9 57.55 99.5 Q 55.4 96.1 49.35 82.2 Q 45.2 72.75 43.3 68.95 M 41.8 68.2 Q 22.95 74.65 17.85 86 M 54.4 100.25 Q 56.35 102.35 59.5 107.7 Q 60.45 109.2 61.95 112.05 Q 63.4 114.5 64.6 114.9 M 31.65 101.05 Q 30.7 104.45 26.3 107.5 Q 25.1 108.05 24.15 110.15 Q 22.95 113.2 22.45 113.95 "/>
  </g>
  <g transform="matrix(1, 0, 0, 1, 228.75, 35)">
    <path stroke="#000000" stroke-opacity="1" stroke-width="1" fill="none" d="M 41.6 15.8 Q 43.2 15.8 47.35 14.8 M 37.85 8.2 Q 38.3 7.75 39.25 7.1 Q 40.5 6.15 42.65 4.75 M 44.25 25.4 Q 47.9 25.4 49.95 25.9 M 24.5 9.6 Q 22.8 9.25 20.85 9.25 L 20.2 9.25 Q 19.05 9.3 18.05 9.5 Q 16.85 9.75 15.75 10.2 Q 15.3 10.2 14.9 10.45 Q 14.35 10.65 13.7 10.95 L 12.45 11.6 Q 11.35 12.35 10.8 12.55 Q 9.3 14.25 8.25 15.15 Q 7.3 16.3 6.35 17.7 Q 5.8 18.45 5.45 19.4 Q 4.65 20.7 4.5 22.05 Q 3.9 23.25 3.75 24.4 Q 3.35 25.9 3.35 27.55 Q 3.15 28.7 3.15 29.75 L 3.15 29.9 Q 3.15 31.6 3.35 33.3 Q 3.55 34.25 3.75 35.45 Q 4.1 36.8 4.65 38.3 L 5.8 40.55 Q 6.35 41.75 7.3 42.9 L 8.25 44 Q 9 44.95 10.05 45.7 Q 11.35 46.85 12.85 47.85 Q 13.8 48.45 15.1 49 Q 15.75 49.2 16.5 49.35 Q 17.55 49.9 18.7 49.95 L 20.45 49.95 L 20.85 49.95 Q 28.35 49.95 33.45 44 Q 38.8 38.1 38.8 29.75 Q 38.8 21.25 33.45 15.15 Q 29.65 10.85 24.5 9.6 L 24.5 9.6 M 20.55 4.75 L 20.55 0.05 M 31.1 5.3 Q 34.35 1.65 35.2 0.05 M 18.05 9.5 Q 14.2 9.95 12.5 10.35 Q 11.2 10.75 10.15 11.1 Q 10.85 11.1 13.7 10.95 M 18.7 49.95 L 14.9 49.95 Q 13.6 49.55 12.65 49.35 Q 12.1 49.2 11.9 49.2 Q 11.15 49 10.4 48.6 Q 10.05 48.6 9.45 48.45 Q 8.05 47 7.3 46.45 Q 6.55 45.9 6.35 45.5 Q 6 45.15 5.8 44.95 L 4.7 43.85 L 3.9 43.1 Q 3.55 42.35 3.15 41.75 Q 2.7 41.1 2.5 40.55 L 1.4 38.3 Q 1.2 37.7 1 36.95 Q 0.8 36.4 0.8 35.65 L 0.25 33.3 Q 0.05 31.6 0.05 29.9 L 0.05 29.55 Q 0.05 28.5 0.25 27.55 Q 0.25 25.9 0.65 24.4 L 1 22.05 Q 1 21.85 1.2 21.85 Q 1.55 20.5 2.15 19.2 Q 2.7 17.9 3.55 16.75 Q 4.1 15.75 5.05 14.6 Q 5.25 14.05 5.6 13.7 L 6.35 13 Q 6.75 12.65 6.8 12.8 L 6.85 12.95 Q 8.45 11.75 9.65 11.3 L 10.15 11.1 M 8.25 15.15 Q 7.7 15.35 6.35 15.15 Q 5.25 14.8 5.05 14.6 M 4.5 22.05 Q 2.9 21.85 1.2 21.85 M 3.55 16.75 L 6.35 17.7 M 2.15 19.2 L 5.45 19.4 M 6.85 12.95 Q 7.3 12.7 10.8 12.55 M 3.35 27.55 L 0.25 27.55 M 0.65 24.4 L 3.75 24.4 M 3.35 33.3 L 0.25 33.3 M 0.05 29.9 L 3.15 29.9 M 4.65 38.3 L 1.4 38.3 M 0.8 35.65 L 3.75 35.45 M 3.9 43.1 L 7.3 42.9 M 5.8 40.55 L 2.5 40.55 M 7.3 46.45 L 10.05 45.7 M 9.45 48.45 Q 9.65 48.45 10.05 48.45 L 12.85 47.85 M 10.05 48.45 L 10.4 48.6 M 15.1 49 L 12.65 49.35 "/>
  </g>
  <g transform="matrix(1, 0, 0, 1, 189, 108)">
    <path stroke="#000000" stroke-opacity="1" stroke-width="1" fill="none" d="M 164.05 21.95 Q 164.95 23.75 164.95 25 Q 164.95 25.5 163.75 32.45 Q 163.15 32.9 163.15 34.1 Q 163.15 35.4 164.05 37.05 Q 164.95 38.65 164.95 40.55 Q 164.95 43.85 161.45 44.1 Q 153 44.25 143 44.7 Q 136 44.95 122.5 44.9 Q 110.25 44.7 109.35 44.7 Q 100.85 44.7 76.6 44.25 Q 57.5 43.85 43.55 44.1 Q 34.5 44.35 16.9 43.85 Q 14.6 38.9 14.6 32.1 Q 16.6 21.85 16.6 17.5 Q 15.7 14.3 16.6 12.55 L 17.2 11.8 L 17.2 11.1 L 17.2 9.8 Q 17.2 4 17.8 0.25 Q 31.9 0.45 59.05 0.8 Q 76 1.1 88.6 1.1 L 94.8 1.1 Q 108.15 1 110.55 0.7 Q 113.75 0.45 117.2 0.45 Q 120.7 0.45 164.95 1.8 L 166.15 4.5 Q 166.15 6.75 164.65 11.35 Q 163.15 15.95 163.15 18.15 Q 163.15 20.2 164.05 21.95 M 163.15 18.15 L 163.15 18.15 "/>
    <path stroke="#000000" stroke-opacity="1" stroke-width="1" fill="none" d="M 147.7 48.95 Q 139.2 49.1 129.2 49.55 Q 122.2 49.8 108.75 49.75 Q 96.45 49.55 95.55 49.55 Q 87.05 49.55 62.8 49.1 Q 43.7 48.7 29.8 48.95 Q 20.7 49.2 3.1 48.7 Q 0.85 43.75 0.85 36.95 Q 2.8 26.7 2.8 22.35 Q 1.9 19.15 2.8 17.4 L 3.4 16.65 L 3.4 15.95 L 3.4 14.65 Q 3.4 8.85 4 5.1 "/>
    <path stroke="#000000" stroke-opacity="1" stroke-width="1" fill="none" d="M 17.7 0.4 L 10.2 3.35 L 7.35 4.1 L 4.2 5.1 "/>
    <path stroke="#000000" stroke-opacity="1" stroke-width="1" fill="none" d="M 16.9 43.9 L 9.45 46.9 L 6.55 47.6 L 3.4 48.6 "/>
    <path stroke="#000000" stroke-opacity="1" stroke-width="1" fill="none" d="M 15.7 41.55 L 8.2 44.55 L 5.35 45.25 L 2.2 46.25 "/>
    <path stroke="#000000" stroke-opacity="1" stroke-width="1" fill="none" d="M 15.2 38.85 L 7.7 41.8 L 4.85 42.5 L 1.65 43.5 "/>
    <path stroke="#000000" stroke-opacity="1" stroke-width="1" fill="none" d="M 14.35 35.75 L 6.85 38.75 L 4 39.45 L 0.85 40.45 "/>
    <path stroke="#000000" stroke-opacity="1" stroke-width="1" fill="none" d="M 14.35 32.2 L 6.85 35.15 L 4 35.85 L 0.85 36.85 "/>
    <path stroke="#000000" stroke-opacity="1" stroke-width="1" fill="none" d="M 15.2 29.15 L 7.7 32.15 L 4.85 32.85 L 1.65 33.85 "/>
    <path stroke="#000000" stroke-opacity="1" stroke-width="1" fill="none" d="M 15.2 26.3 L 7.7 29.25 L 4.85 30 L 1.65 31 "/>
    <path stroke="#000000" stroke-opacity="1" stroke-width="1" fill="none" d="M 15.9 23.1 L 8.45 26.05 L 5.55 26.75 L 2.4 27.75 "/>
    <path stroke="#000000" stroke-opacity="1" stroke-width="1" fill="none" d="M 16.3 19.7 L 8.85 22.65 L 5.95 23.35 L 2.8 24.35 "/>
    <path stroke="#000000" stroke-opacity="1" stroke-width="1" fill="none" d="M 16.3 16.65 L 8.85 19.6 L 5.95 20.3 L 2.8 21.3 "/>
    <path stroke="#000000" stroke-opacity="1" stroke-width="1" fill="none" d="M 16.3 13.3 L 8.85 16.3 L 5.95 17 L 2.8 18 "/>
    <path stroke="#000000" stroke-opacity="1" stroke-width="1" fill="none" d="M 16.95 10.2 L 9.45 13.15 L 6.6 13.85 L 3.4 14.85 "/>
    <path stroke="#000000" stroke-opacity="1" stroke-width="1" fill="none" d="M 16.95 7.85 L 9.45 10.8 L 6.6 11.5 L 3.4 12.5 "/>
    <path stroke="#000000" stroke-opacity="1" stroke-width="1" fill="none" d="M 16.95 5.5 L 9.45 8.45 L 6.6 9.15 L 3.4 10.2 "/>
    <path stroke="#000000" stroke-opacity="1" stroke-width="1" fill="none" d="M 16.95 2.75 L 9.45 5.75 L 6.6 6.45 L 3.4 7.45 "/>
    <path stroke="#000000" stroke-opacity="1" stroke-width="1" fill="none" d="M 26.05 44.15 L 18.55 47.1 L 15.7 47.8 L 12.55 48.8 "/>
    <path stroke="#000000" stroke-opacity="1" stroke-width="1" fill="none" d="M 37.5 44.15 L 30.05 47.1 L 27.15 47.8 L 24 48.8 "/>
    <path stroke="#000000" stroke-opacity="1" stroke-width="1" fill="none" d="M 49.2 44.15 L 41.7 47.1 L 38.85 47.8 L 35.7 48.8 "/>
    <path stroke="#000000" stroke-opacity="1" stroke-width="1" fill="none" d="M 60.95 44.15 L 53.45 47.1 L 50.6 47.8 L 47.4 48.8 "/>
    <path stroke="#000000" stroke-opacity="1" stroke-width="1" fill="none" d="M 71.5 44.15 L 64 47.1 L 61.15 47.8 L 57.95 48.8 "/>
    <path stroke="#000000" stroke-opacity="1" stroke-width="1" fill="none" d="M 81 44.4 L 73.55 47.35 L 70.65 48.05 L 67.5 49.05 "/>
    <path stroke="#000000" stroke-opacity="1" stroke-width="1" fill="none" d="M 91.6 44.65 L 84.15 47.6 L 81.25 48.3 L 78.1 49.3 "/>
    <path stroke="#000000" stroke-opacity="1" stroke-width="1" fill="none" d="M 101.8 44.65 L 94.35 47.6 L 91.45 48.3 L 88.3 49.3 "/>
    <path stroke="#000000" stroke-opacity="1" stroke-width="1" fill="none" d="M 113.2 44.8 L 105.7 47.75 L 102.85 48.45 L 99.65 49.45 "/>
    <path stroke="#000000" stroke-opacity="1" stroke-width="1" fill="none" d="M 123.65 44.9 L 116.15 47.85 L 113.3 48.6 L 110.1 49.6 "/>
    <path stroke="#000000" stroke-opacity="1" stroke-width="1" fill="none" d="M 133.8 44.9 L 126.35 47.85 L 123.45 48.6 L 120.3 49.6 "/>
    <path stroke="#000000" stroke-opacity="1" stroke-width="1" fill="none" d="M 143.85 44.65 L 136.35 47.6 L 133.5 48.3 L 130.35 49.3 "/>
    <path stroke="#000000" stroke-opacity="1" stroke-width="1" fill="none" d="M 153.6 44.2 L 146.15 47.2 L 143.25 47.9 L 140.1 48.9 "/>
    <path stroke="#000000" stroke-opacity="1" stroke-width="1" fill="none" d="M 162.25 43.9 L 154.8 46.9 L 151.9 47.6 L 148.75 48.6 "/>
  </g>
  <g transform="matrix(1, 0, 0, 1, 0, 0)">
    <path stroke="#000000" stroke-opacity="0.00784313725490196" stroke-width="10" fill="none" d="M 10 212 Q 238.5 210.5 469 215 "/>
    <path stroke="#000000" stroke-opacity="1" stroke-width="1" fill="none" d="M 10 212 Q 238.5 210.5 469 215 "/>
  </g>
  <g transform="matrix(1, 0, 0, 1, 291.75, 37)">
    <path stroke="#000000" stroke-opacity="1" stroke-width="1" fill="none" d="M 41.6 15.8 Q 43.2 15.8 47.35 14.8 M 37.85 8.2 Q 38.3 7.75 39.25 7.1 Q 40.5 6.15 42.65 4.75 M 44.25 25.4 Q 47.9 25.4 49.95 25.9 M 24.5 9.6 Q 22.8 9.25 20.85 9.25 L 20.2 9.25 Q 19.05 9.3 18.05 9.5 Q 16.85 9.75 15.75 10.2 Q 15.3 10.2 14.9 10.45 Q 14.35 10.65 13.7 10.95 L 12.45 11.6 Q 11.35 12.35 10.8 12.55 Q 9.3 14.25 8.25 15.15 Q 7.3 16.3 6.35 17.7 Q 5.8 18.45 5.45 19.4 Q 4.65 20.7 4.5 22.05 Q 3.9 23.25 3.75 24.4 Q 3.35 25.9 3.35 27.55 Q 3.15 28.7 3.15 29.75 L 3.15 29.9 Q 3.15 31.6 3.35 33.3 Q 3.55 34.25 3.75 35.45 Q 4.1 36.8 4.65 38.3 L 5.8 40.55 Q 6.35 41.75 7.3 42.9 L 8.25 44 Q 9 44.95 10.05 45.7 Q 11.35 46.85 12.85 47.85 Q 13.8 48.45 15.1 49 Q 15.75 49.2 16.5 49.35 Q 17.55 49.9 18.7 49.95 L 20.45 49.95 L 20.85 49.95 Q 28.35 49.95 33.45 44 Q 38.8 38.1 38.8 29.75 Q 38.8 21.25 33.45 15.15 Q 29.65 10.85 24.5 9.6 L 24.5 9.6 M 20.55 4.75 L 20.55 0.05 M 31.1 5.3 Q 34.35 1.65 35.2 0.05 M 18.05 9.5 Q 14.2 9.95 12.5 10.35 Q 11.2 10.75 10.15 11.1 Q 10.85 11.1 13.7 10.95 M 18.7 49.95 L 14.9 49.95 Q 13.6 49.55 12.65 49.35 Q 12.1 49.2 11.9 49.2 Q 11.15 49 10.4 48.6 Q 10.05 48.6 9.45 48.45 Q 8.05 47 7.3 46.45 Q 6.55 45.9 6.35 45.5 Q 6 45.15 5.8 44.95 L 4.7 43.85 L 3.9 43.1 Q 3.55 42.35 3.15 41.75 Q 2.7 41.1 2.5 40.55 L 1.4 38.3 Q 1.2 37.7 1 36.95 Q 0.8 36.4 0.8 35.65 L 0.25 33.3 Q 0.05 31.6 0.05 29.9 L 0.05 29.55 Q 0.05 28.5 0.25 27.55 Q 0.25 25.9 0.65 24.4 L 1 22.05 Q 1 21.85 1.2 21.85 Q 1.55 20.5 2.15 19.2 Q 2.7 17.9 3.55 16.75 Q 4.1 15.75 5.05 14.6 Q 5.25 14.05 5.6 13.7 L 6.35 13 Q 6.75 12.65 6.8 12.8 L 6.85 12.95 Q 8.45 11.75 9.65 11.3 L 10.15 11.1 M 8.25 15.15 Q 7.7 15.35 6.35 15.15 Q 5.25 14.8 5.05 14.6 M 4.5 22.05 Q 2.9 21.85 1.2 21.85 M 3.55 16.75 L 6.35 17.7 M 2.15 19.2 L 5.45 19.4 M 6.85 12.95 Q 7.3 12.7 10.8 12.55 M 3.35 27.55 L 0.25 27.55 M 0.65 24.4 L 3.75 24.4 M 3.35 33.3 L 0.25 33.3 M 0.05 29.9 L 3.15 29.9 M 4.65 38.3 L 1.4 38.3 M 0.8 35.65 L 3.75 35.45 M 3.9 43.1 L 7.3 42.9 M 5.8 40.55 L 2.5 40.55 M 7.3 46.45 L 10.05 45.7 M 9.45 48.45 Q 9.65 48.45 10.05 48.45 L 12.85 47.85 M 10.05 48.45 L 10.4 48.6 M 15.1 49 L 12.65 49.35 "/>
  </g>
  <g transform="matrix(1, 0, 0, 1, 404, 144)">
    <path stroke="#000000" stroke-opacity="1" stroke-width="1" fill="none" d="M 41.6 15.8 Q 43.2 15.8 47.35 14.8 M 37.85 8.2 Q 38.3 7.75 39.25 7.1 Q 40.5 6.15 42.65 4.75 M 44.25 25.4 Q 47.9 25.4 49.95 25.9 M 24.5 9.6 Q 22.8 9.25 20.85 9.25 L 20.2 9.25 Q 19.05 9.3 18.05 9.5 Q 16.85 9.75 15.75 10.2 Q 15.3 10.2 14.9 10.45 Q 14.35 10.65 13.7 10.95 L 12.45 11.6 Q 11.35 12.35 10.8 12.55 Q 9.3 14.25 8.25 15.15 Q 7.3 16.3 6.35 17.7 Q 5.8 18.45 5.45 19.4 Q 4.65 20.7 4.5 22.05 Q 3.9 23.25 3.75 24.4 Q 3.35 25.9 3.35 27.55 Q 3.15 28.7 3.15 29.75 L 3.15 29.9 Q 3.15 31.6 3.35 33.3 Q 3.55 34.25 3.75 35.45 Q 4.1 36.8 4.65 38.3 L 5.8 40.55 Q 6.35 41.75 7.3 42.9 L 8.25 44 Q 9 44.95 10.05 45.7 Q 11.35 46.85 12.85 47.85 Q 13.8 48.45 15.1 49 Q 15.75 49.2 16.5 49.35 Q 17.55 49.9 18.7 49.95 L 20.45 49.95 L 20.85 49.95 Q 28.35 49.95 33.45 44 Q 38.8 38.1 38.8 29.75 Q 38.8 21.25 33.45 15.15 Q 29.65 10.85 24.5 9.6 L 24.5 9.6 M 20.55 4.75 L 20.55 0.05 M 31.1 5.3 Q 34.35 1.65 35.2 0.05 M 18.05 9.5 Q 14.2 9.95 12.5 10.35 Q 11.2 10.75 10.15 11.1 Q 10.85 11.1 13.7 10.95 M 18.7 49.95 L 14.9 49.95 Q 13.6 49.55 12.65 49.35 Q 12.1 49.2 11.9 49.2 Q 11.15 49 10.4 48.6 Q 10.05 48.6 9.45 48.45 Q 8.05 47 7.3 46.45 Q 6.55 45.9 6.35 45.5 Q 6 45.15 5.8 44.95 L 4.7 43.85 L 3.9 43.1 Q 3.55 42.35 3.15 41.75 Q 2.7 41.1 2.5 40.55 L 1.4 38.3 Q 1.2 37.7 1 36.95 Q 0.8 36.4 0.8 35.65 L 0.25 33.3 Q 0.05 31.6 0.05 29.9 L 0.05 29.55 Q 0.05 28.5 0.25 27.55 Q 0.25 25.9 0.65 24.4 L 1 22.05 Q 1 21.85 1.2 21.85 Q 1.55 20.5 2.15 19.2 Q 2.7 17.9 3.55 16.75 Q 4.1 15.75 5.05 14.6 Q 5.25 14.05 5.6 13.7 L 6.35 13 Q 6.75 12.65 6.8 12.8 L 6.85 12.95 Q 8.45 11.75 9.65 11.3 L 10.15 11.1 M 8.25 15.15 Q 7.7 15.35 6.35 15.15 Q 5.25 14.8 5.05 14.6 M 4.5 22.05 Q 2.9 21.85 1.2 21.85 M 3.55 16.75 L 6.35 17.7 M 2.15 19.2 L 5.45 19.4 M 6.85 12.95 Q 7.3 12.7 10.8 12.55 M 3.35 27.55 L 0.25 27.55 M 0.65 24.4 L 3.75 24.4 M 3.35 33.3 L 0.25 33.3 M 0.05 29.9 L 3.15 29.9 M 4.65 38.3 L 1.4 38.3 M 0.8 35.65 L 3.75 35.45 M 3.9 43.1 L 7.3 42.9 M 5.8 40.55 L 2.5 40.55 M 7.3 46.45 L 10.05 45.7 M 9.45 48.45 Q 9.65 48.45 10.05 48.45 L 12.85 47.85 M 10.05 48.45 L 10.4 48.6 M 15.1 49 L 12.65 49.35 "/>
  </g>
  <g transform="matrix(1, 0, 0, 1, 0, 0)">
    <path stroke="#000000" stroke-opacity="0.00784313725490196" stroke-width="10" fill="none" d="M 76 119 Q 20.5 150 27 205 "/>
    <path stroke="#000000" stroke-opacity="1" stroke-width="1" fill="none" d="M 76 119 L 75.45 119.3 L 74.9 119.6 L 74.35 119.95 L 73.8 120.25 L 73.25 120.55 L 72.75 120.9 L 72.2 121.2 L 71.65 121.5 L 71.15 121.85 L 70.6 122.15 L 70.1 122.5 L 69.55 122.8 L 69.05 123.15 L 68.55 123.45 L 68 123.8 L 67.5 124.1 "/>
    <path stroke="#000000" stroke-opacity="1" stroke-width="1" fill="none" d="M 59.35 129.9 L 58.9 130.25 L 58.45 130.6 L 58.05 130.95 L 57.6 131.3 L 57.15 131.65 L 56.7 132 L 56.3 132.35 L 55.85 132.7 L 55.4 133.1 L 55 133.45 L 54.6 133.8 L 54.15 134.15 L 53.75 134.55 L 53.35 134.9 L 52.95 135.25 L 52.55 135.65 L 52.1 136 L 51.75 136.35 "/>
    <path stroke="#000000" stroke-opacity="1" stroke-width="1" fill="none" d="M 45.1 143.25 L 44.75 143.65 L 44.4 144.05 L 44.1 144.45 L 43.75 144.85 L 43.4 145.25 L 43.1 145.6 L 42.75 146.05 L 42.45 146.45 L 42.15 146.85 L 41.85 147.25 L 41.5 147.65 L 41.2 148.05 L 40.9 148.45 L 40.6 148.85 L 40.3 149.25 L 40 149.7 L 39.75 150.1 L 39.45 150.5 L 39.15 150.95 L 38.9 151.35 "/>
    <path stroke="#000000" stroke-opacity="1" stroke-width="1" fill="none" d="M 33.9 159.9 L 33.7 160.35 L 33.5 160.8 L 33.3 161.25 L 33.1 161.7 L 32.85 162.15 L 32.65 162.6 L 32.5 163.05 L 32.3 163.5 L 32.1 163.95 L 31.9 164.4 L 31.7 164.85 L 31.55 165.3 L 31.35 165.75 L 31.2 166.2 L 31 166.65 L 30.85 167.15 L 30.7 167.6 L 30.5 168.05 L 30.35 168.5 L 30.2 168.95 L 30.05 169.45 "/>
    <path stroke="#000000" stroke-opacity="1" stroke-width="1" fill="none" d="M 27.6 179 L 27.55 179.5 L 27.45 180 L 27.35 180.5 L 27.3 180.95 L 27.2 181.45 L 27.15 181.95 L 27.05 182.45 L 27 182.95 L 26.95 183.45 L 26.9 183.95 L 26.8 184.45 L 26.75 184.95 L 26.7 185.45 L 26.65 186 L 26.6 186.5 L 26.6 187 L 26.55 187.5 L 26.5 188 L 26.45 188.55 L 26.45 189.05 "/>
    <path stroke="#000000" stroke-opacity="1" stroke-width="1" fill="none" d="M 26.45 199 L 26.5 199.55 L 26.55 200.1 L 26.6 200.65 L 26.6 201.2 L 26.65 201.7 L 26.7 202.25 L 26.75 202.8 L 26.8 203.35 L 26.9 203.9 L 26.95 204.45 "/>
  </g>
  <g transform="matrix(1, 0, 0, 1, 85, 10)">
    <path stroke="#ff3300" stroke-opacity="1" stroke-width="3" fill="none" d="M 0 0 L 10 0 "/>
    <path stroke="#ff3300" stroke-opacity="1" stroke-width="3" fill="none" d="M 20 0 L 30 0 "/>
    <path stroke="#ff3300" stroke-opacity="1" stroke-width="3" fill="none" d="M 40 0 L 50 0 "/>
    <path stroke="#ff3300" stroke-opacity="1" stroke-width="3" fill="none" d="M 60 0 L 70 0 "/>
    <path stroke="#ff3300" stroke-opacity="1" stroke-width="3" fill="none" d="M 78.75 1.25 L 78.75 11.25 "/>
    <path stroke="#ff3300" stroke-opacity="1" stroke-width="3" fill="none" d="M 78.75 21.25 L 78.75 31.25 "/>
    <path stroke="#ff3300" stroke-opacity="1" stroke-width="3" fill="none" d="M 78.75 41.25 L 78.75 51.25 "/>
    <path stroke="#ff3300" stroke-opacity="1" stroke-width="3" fill="none" d="M 78.75 61.25 L 78.75 71.25 "/>
    <path stroke="#ff3300" stroke-opacity="1" stroke-width="3" fill="none" d="M 78.75 81.25 L 78.75 91.25 "/>
    <path stroke="#ff3300" stroke-opacity="1" stroke-width="3" fill="none" d="M 78.75 101.25 L 78.75 111.25 "/>
    <path stroke="#ff3300" stroke-opacity="1" stroke-width="3" fill="none" d="M 78.75 121.25 L 78.75 131.25 "/>
    <path stroke="#ff3300" stroke-opacity="1" stroke-width="3" fill="none" d="M 72.5 135 L 62.5 135 "/>
    <path stroke="#ff3300" stroke-opacity="1" stroke-width="3" fill="none" d="M 52.5 135 L 42.5 135 "/>
    <path stroke="#ff3300" stroke-opacity="1" stroke-width="3" fill="none" d="M 32.5 135 L 22.5 135 "/>
    <path stroke="#ff3300" stroke-opacity="1" stroke-width="3" fill="none" d="M 12.5 135 L 2.5 135 "/>
    <path stroke="#ff3300" stroke-opacity="1" stroke-width="3" fill="none" d="M 0 127.5 L 0 117.5 "/>
    <path stroke="#ff3300" stroke-opacity="1" stroke-width="3" fill="none" d="M 0 107.5 L 0 97.5 "/>
    <path stroke="#ff3300" stroke-opacity="1" stroke-width="3" fill="none" d="M 0 87.5 L 0 77.5 "/>
    <path stroke="#ff3300" stroke-opacity="1" stroke-width="3" fill="none" d="M 0 67.5 L 0 57.5 "/>
    <path stroke="#ff3300" stroke-opacity="1" stroke-width="3" fill="none" d="M 0 47.5 L 0 37.5 "/>
    <path stroke="#ff3300" stroke-opacity="1" stroke-width="3" fill="none" d="M 0 27.5 L 0 17.5 "/>
    <path stroke="#ff3300" stroke-opacity="1" stroke-width="3" fill="none" d="M 0 7.5 L 0 0 "/>
  </g>
  <g transform="matrix(1, 0, 0, 1, 286, 39)">
    <path stroke="#ff3300" stroke-opacity="1" stroke-width="3" fill="none" d="M 26.2 0.55 Q 22.7 0.55 19.2 1.55 L 18.15 2.25 Q 14.7 3.55 12 5.15 L 11.7 5.35 Q 7.1 8.25 4.5 12.15 Q 0.55 18.25 0.55 25 Q 0.55 31.75 3.35 37.25 Q 6 42.7 9.45 46.25 Q 12.9 49.8 15.65 51.3 Q 18.7 52.9 24.8 52.9 Q 29.75 52.9 35.4 50.15 Q 40.35 47.75 43.25 44.75 Q 46.5 41.35 48.65 36.8 Q 51 31.55 51 26.2 Q 51 16.55 44.35 8.9 Q 37.05 0.55 26.2 0.55 M 44.35 8.9 L 44.35 8.9 M 19.2 1.55 L 18.05 1.95 Q 14.15 3.2 12 5.15 "/>
  </g>
</svg>
