<svg version="1.1" width="620" height="428" xmlns:xlink="http://www.w3.org/1999/xlink" xmlns="http://www.w3.org/2000/svg">
  <defs/>
  <g transform="matrix(1, 0, 0, 1, 0, 0)">
    <path stroke="#000000" stroke-opacity="0.00784313725490196" stroke-width="10" fill="none" d="M 441.5 10 L 440.5 416 "/>
    <path stroke="#000000" stroke-opacity="1" stroke-width="1" fill="none" d="M 441.5 10 L 441.5 20 "/>
    <path stroke="#000000" stroke-opacity="1" stroke-width="1" fill="none" d="M 441.45 30 L 441.45 40 "/>
    <path stroke="#000000" stroke-opacity="1" stroke-width="1" fill="none" d="M 441.4 50 L 441.4 60 "/>
    <path stroke="#000000" stroke-opacity="1" stroke-width="1" fill="none" d="M 441.35 70 L 441.35 80 "/>
    <path stroke="#000000" stroke-opacity="1" stroke-width="1" fill="none" d="M 441.3 90 L 441.3 100 "/>
    <path stroke="#000000" stroke-opacity="1" stroke-width="1" fill="none" d="M 441.25 110 L 441.25 120 "/>
    <path stroke="#000000" stroke-opacity="1" stroke-width="1" fill="none" d="M 441.2 130 L 441.2 140 "/>
    <path stroke="#000000" stroke-opacity="1" stroke-width="1" fill="none" d="M 441.15 150 L 441.15 160 "/>
    <path stroke="#000000" stroke-opacity="1" stroke-width="1" fill="none" d="M 441.1 170 L 441.1 180 "/>
    <path stroke="#000000" stroke-opacity="1" stroke-width="1" fill="none" d="M 441.05 190 L 441.05 200 "/>
    <path stroke="#000000" stroke-opacity="1" stroke-width="1" fill="none" d="M 441 210 L 441 220 "/>
    <path stroke="#000000" stroke-opacity="1" stroke-width="1" fill="none" d="M 440.95 230 L 440.95 240 "/>
    <path stroke="#000000" stroke-opacity="1" stroke-width="1" fill="none" d="M 440.9 250 L 440.9 260 "/>
    <path stroke="#000000" stroke-opacity="1" stroke-width="1" fill="none" d="M 440.85 270 L 440.85 280 "/>
    <path stroke="#000000" stroke-opacity="1" stroke-width="1" fill="none" d="M 440.8 290 L 440.8 300 "/>
    <path stroke="#000000" stroke-opacity="1" stroke-width="1" fill="none" d="M 440.75 310 L 440.75 320 "/>
    <path stroke="#000000" stroke-opacity="1" stroke-width="1" fill="none" d="M 440.7 330 L 440.7 340 "/>
    <path stroke="#000000" stroke-opacity="1" stroke-width="1" fill="none" d="M 440.65 350 L 440.65 360 "/>
    <path stroke="#000000" stroke-opacity="1" stroke-width="1" fill="none" d="M 440.6 370 L 440.6 380 "/>
    <path stroke="#000000" stroke-opacity="1" stroke-width="1" fill="none" d="M 440.55 390 L 440.55 400 "/>
    <path stroke="#000000" stroke-opacity="1" stroke-width="1" fill="none" d="M 440.5 410 L 440.5 416 "/>
  </g>
  <g transform="matrix(1, 0, 0, 1, 0, 0)">
    <path stroke="#000000" stroke-opacity="0.00784313725490196" stroke-width="10" fill="none" d="M 91 12 L 90 418 "/>
    <path stroke="#000000" stroke-opacity="1" stroke-width="1" fill="none" d="M 91 12 L 91 22 "/>
    <path stroke="#000000" stroke-opacity="1" stroke-width="1" fill="none" d="M 90.95 32 L 90.95 42 "/>
    <path stroke="#000000" stroke-opacity="1" stroke-width="1" fill="none" d="M 90.9 52 L 90.9 62 "/>
    <path stroke="#000000" stroke-opacity="1" stroke-width="1" fill="none" d="M 90.85 72 L 90.85 82 "/>
    <path stroke="#000000" stroke-opacity="1" stroke-width="1" fill="none" d="M 90.8 92 L 90.8 102 "/>
    <path stroke="#000000" stroke-opacity="1" stroke-width="1" fill="none" d="M 90.75 112 L 90.75 122 "/>
    <path stroke="#000000" stroke-opacity="1" stroke-width="1" fill="none" d="M 90.7 132 L 90.7 142 "/>
    <path stroke="#000000" stroke-opacity="1" stroke-width="1" fill="none" d="M 90.65 152 L 90.65 162 "/>
    <path stroke="#000000" stroke-opacity="1" stroke-width="1" fill="none" d="M 90.6 172 L 90.6 182 "/>
    <path stroke="#000000" stroke-opacity="1" stroke-width="1" fill="none" d="M 90.55 192 L 90.55 202 "/>
    <path stroke="#000000" stroke-opacity="1" stroke-width="1" fill="none" d="M 90.5 212 L 90.5 222 "/>
    <path stroke="#000000" stroke-opacity="1" stroke-width="1" fill="none" d="M 90.45 232 L 90.45 242 "/>
    <path stroke="#000000" stroke-opacity="1" stroke-width="1" fill="none" d="M 90.4 252 L 90.4 262 "/>
    <path stroke="#000000" stroke-opacity="1" stroke-width="1" fill="none" d="M 90.35 272 L 90.35 282 "/>
    <path stroke="#000000" stroke-opacity="1" stroke-width="1" fill="none" d="M 90.3 292 L 90.3 302 "/>
    <path stroke="#000000" stroke-opacity="1" stroke-width="1" fill="none" d="M 90.25 312 L 90.25 322 "/>
    <path stroke="#000000" stroke-opacity="1" stroke-width="1" fill="none" d="M 90.2 332 L 90.2 342 "/>
    <path stroke="#000000" stroke-opacity="1" stroke-width="1" fill="none" d="M 90.15 352 L 90.15 362 "/>
    <path stroke="#000000" stroke-opacity="1" stroke-width="1" fill="none" d="M 90.1 372 L 90.1 382 "/>
    <path stroke="#000000" stroke-opacity="1" stroke-width="1" fill="none" d="M 90.05 392 L 90.05 402 "/>
    <path stroke="#000000" stroke-opacity="1" stroke-width="1" fill="none" d="M 90 412 L 90 418 "/>
  </g>
  <g transform="matrix(1, 0, 0, 1, 0, 0)">
    <path stroke="#000000" stroke-opacity="0.00784313725490196" stroke-width="10" fill="none" d="M 10 176 L 610 176 "/>
    <path stroke="#000000" stroke-opacity="1" stroke-width="1" fill="none" d="M 10 176 L 20 176 "/>
    <path stroke="#000000" stroke-opacity="1" stroke-width="1" fill="none" d="M 30 176 L 40 176 "/>
    <path stroke="#000000" stroke-opacity="1" stroke-width="1" fill="none" d="M 50 176 L 60 176 "/>
    <path stroke="#000000" stroke-opacity="1" stroke-width="1" fill="none" d="M 70 176 L 80 176 "/>
    <path stroke="#000000" stroke-opacity="1" stroke-width="1" fill="none" d="M 90 176 L 100 176 "/>
    <path stroke="#000000" stroke-opacity="1" stroke-width="1" fill="none" d="M 110 176 L 120 176 "/>
    <path stroke="#000000" stroke-opacity="1" stroke-width="1" fill="none" d="M 130 176 L 140 176 "/>
    <path stroke="#000000" stroke-opacity="1" stroke-width="1" fill="none" d="M 150 176 L 160 176 "/>
    <path stroke="#000000" stroke-opacity="1" stroke-width="1" fill="none" d="M 170 176 L 180 176 "/>
    <path stroke="#000000" stroke-opacity="1" stroke-width="1" fill="none" d="M 190 176 L 200 176 "/>
    <path stroke="#000000" stroke-opacity="1" stroke-width="1" fill="none" d="M 210 176 L 220 176 "/>
    <path stroke="#000000" stroke-opacity="1" stroke-width="1" fill="none" d="M 230 176 L 240 176 "/>
    <path stroke="#000000" stroke-opacity="1" stroke-width="1" fill="none" d="M 250 176 L 260 176 "/>
    <path stroke="#000000" stroke-opacity="1" stroke-width="1" fill="none" d="M 270 176 L 280 176 "/>
    <path stroke="#000000" stroke-opacity="1" stroke-width="1" fill="none" d="M 290 176 L 300 176 "/>
    <path stroke="#000000" stroke-opacity="1" stroke-width="1" fill="none" d="M 310 176 L 320 176 "/>
    <path stroke="#000000" stroke-opacity="1" stroke-width="1" fill="none" d="M 330 176 L 340 176 "/>
    <path stroke="#000000" stroke-opacity="1" stroke-width="1" fill="none" d="M 350 176 L 360 176 "/>
    <path stroke="#000000" stroke-opacity="1" stroke-width="1" fill="none" d="M 370 176 L 380 176 "/>
    <path stroke="#000000" stroke-opacity="1" stroke-width="1" fill="none" d="M 390 176 L 400 176 "/>
    <path stroke="#000000" stroke-opacity="1" stroke-width="1" fill="none" d="M 410 176 L 420 176 "/>
    <path stroke="#000000" stroke-opacity="1" stroke-width="1" fill="none" d="M 430 176 L 440 176 "/>
    <path stroke="#000000" stroke-opacity="1" stroke-width="1" fill="none" d="M 450 176 L 460 176 "/>
    <path stroke="#000000" stroke-opacity="1" stroke-width="1" fill="none" d="M 470 176 L 480 176 "/>
    <path stroke="#000000" stroke-opacity="1" stroke-width="1" fill="none" d="M 490 176 L 500 176 "/>
    <path stroke="#000000" stroke-opacity="1" stroke-width="1" fill="none" d="M 510 176 L 520 176 "/>
    <path stroke="#000000" stroke-opacity="1" stroke-width="1" fill="none" d="M 530 176 L 540 176 "/>
    <path stroke="#000000" stroke-opacity="1" stroke-width="1" fill="none" d="M 550 176 L 560 176 "/>
    <path stroke="#000000" stroke-opacity="1" stroke-width="1" fill="none" d="M 570 176 L 580 176 "/>
    <path stroke="#000000" stroke-opacity="1" stroke-width="1" fill="none" d="M 590 176 L 600 176 "/>
  </g>
  <g transform="matrix(1, 0, 0, 1, 85, 174)">
    <path stroke="none" fill="#ffffff" fill-opacity="1" d="M 200.65 76.15 Q 200.65 84.7 201.9 91.9 Q 203.1 99.5 203.1 104.7 Q 203.1 106.75 201.5 135.65 Q 200.65 137.45 200.65 142.5 Q 200.65 147.85 201.9 154.7 Q 203.1 161.2 203.1 169.15 Q 203.1 182.85 198.45 183.95 Q 187.1 184.5 173.7 186.35 Q 164.4 187.5 146.35 187.1 Q 129.95 186.35 128.75 186.35 Q 117.4 186.35 84.95 184.5 Q 59.4 182.85 40.75 183.95 Q 28.6 184.9 5.1 182.85 Q 2.05 162.3 2.05 134.15 Q 4.7 91.55 4.7 73.55 Q 3.5 60.25 4.7 53 Q 5.1 51.15 5.5 49.85 L 5.5 46.9 Q 5.5 44.3 5.5 41.55 Q 5.5 17.45 6.35 1.9 Q 25.15 2.65 61.45 4.1 Q 84.15 5.4 100.95 5.4 Q 105.2 5.4 109.25 5.4 Q 127.1 5.05 130.35 3.75 Q 134.6 2.65 139.25 2.65 Q 143.95 2.65 203.1 8.35 L 204.7 19.5 Q 204.7 28.95 202.7 48 Q 200.65 67.1 200.65 76.15 L 200.65 76.15 "/>
    <path stroke="#000000" stroke-opacity="1" stroke-width="1" fill="none" d="M 201.9 91.9 Q 203.1 99.5 203.1 104.7 Q 203.1 106.75 201.5 135.65 Q 200.65 137.45 200.65 142.5 Q 200.65 147.85 201.9 154.7 Q 203.1 161.2 203.1 169.15 Q 203.1 182.85 198.45 183.95 Q 187.1 184.5 173.7 186.35 Q 164.4 187.5 146.35 187.1 Q 129.95 186.35 128.75 186.35 Q 117.4 186.35 84.95 184.5 Q 59.4 182.85 40.75 183.95 Q 28.6 184.9 5.1 182.85 Q 2.05 162.3 2.05 134.15 Q 4.7 91.55 4.7 73.55 Q 3.5 60.25 4.7 53 Q 5.1 51.15 5.5 49.85 L 5.5 46.9 Q 5.5 44.3 5.5 41.55 Q 5.5 17.45 6.35 1.9 Q 25.15 2.65 61.45 4.1 Q 84.15 5.4 100.95 5.4 Q 105.2 5.4 109.25 5.4 Q 127.1 5.05 130.35 3.75 Q 134.6 2.65 139.25 2.65 Q 143.95 2.65 203.1 8.35 L 204.7 19.5 Q 204.7 28.95 202.7 48 Q 200.65 67.1 200.65 76.15 Q 200.65 84.7 201.9 91.9 M 200.65 76.15 L 200.65 76.15 "/>
  </g>
  <g transform="matrix(1, 0, 0, 1, 103.5, 193.25)">
    <path stroke="none" fill="#ffffff" fill-opacity="1" d="M 31.75 40.4 L 31.35 39.95 Q 37.25 27.8 39.7 25.25 Q 45.15 19.65 57.15 19.65 L 57.95 19.65 Q 59.7 19.75 63 20.15 Q 61.1 18.65 58.2 17.55 L 58.05 17.45 Q 58 17.45 57.9 17.4 Q 55.95 16.65 53.5 16.1 Q 51.05 15.45 44.6 14.55 Q 45.5 14.55 45.5 12.75 Q 49.15 10.4 49.9 10.1 Q 51.5 9.45 54.9 9.45 Q 67 9.45 78.15 16.4 L 79.15 17.05 L 80.2 15.35 L 78.9 15.25 Q 78.5 14.9 78.5 13.6 Q 78.5 8.25 86.25 3.75 Q 92.5 0.15 95.4 0.15 Q 93.35 3.35 89.2 11.1 L 89.2 15.95 L 91.1 15.1 Q 94.15 13.7 98.95 13.7 Q 105.95 13.7 109.75 15.65 Q 112.35 17.05 119.45 22.2 L 119.45 23 Q 113.9 21.3 111.4 21.3 Q 109.65 21.3 106.45 22.6 Q 103.95 23.55 100.25 23.8 Q 102.7 25.7 104 27.95 Q 106.05 31.4 106.05 36.95 Q 106.05 40.6 104.15 43.9 Q 101.95 47.7 98.95 47.45 Q 99.7 41.8 92.95 34.45 Q 85.5 26.5 77.1 28.05 L 75.85 29.75 Q 73.9 29.95 72.05 30.5 L 71.8 30.6 L 71.7 30.6 Q 70.25 31.05 68.95 31.7 Q 67.45 32.35 66.1 33.25 Q 63.4 34.95 61.1 37.5 Q 58.3 40.6 55.05 46.5 L 53.6 45.8 Q 57.75 37.85 59.85 35.1 L 61.25 33.35 L 61.8 32.85 L 62 32.65 L 62.15 32.5 Q 62 32.5 61.8 32.45 L 61.3 32.45 L 59.9 32.4 Q 55.7 32.4 50.6 33.4 Q 48.2 33.85 45.6 34.55 Q 35.05 37.4 31.75 40.4 L 31.75 40.4 M 106.55 107.1 Q 107.3 107.15 107.85 107.25 Q 108.25 107.25 108.5 107.35 Q 108.8 107.4 109.45 107.8 Q 109.85 107.9 110.35 108.2 Q 112.35 109.4 112.25 112.6 Q 112 115.55 109.9 116.9 Q 111.95 115.55 112.25 112.6 Q 112.35 109.4 110.35 108.2 Q 109.85 107.9 109.45 107.8 Q 108.8 107.4 108.5 107.35 Q 108.25 107.25 107.85 107.25 Q 107.3 107.15 106.55 107.1 L 106.55 107.1 M 107.3 111.6 Q 107.25 111.65 105.55 112.15 L 105.45 112.15 Q 104.4 112.35 102.95 112.8 Q 104.4 112.35 105.45 112.15 L 105.55 112.15 Q 107.25 111.65 107.3 111.6 L 107.3 111.6 M 131.05 125.65 L 130.8 125.85 Q 129.35 127.05 128 128.1 Q 125.85 129.8 123.95 131.3 Q 113.05 139.65 105.4 141.1 Q 102.95 141.55 86 141.55 Q 65.85 141.55 50.95 139 Q 21.5 133.9 21.5 120.35 Q 21.5 111.9 40.8 100.45 Q 55.95 91.45 68.7 89.05 Q 69.15 89.2 70.1 89.35 Q 72.9 89.75 80.55 89.9 Q 87.9 90.05 90.2 90 Q 89.05 87.4 87.9 84 L 86.45 83.95 L 87.9 84 Q 89.05 87.4 90.2 90 Q 87.9 90.05 80.55 89.9 Q 72.9 89.75 70.1 89.35 Q 69.9 87.6 69.7 85.6 Q 69.5 83.4 69.35 80.95 Q 69 77.25 68.9 74.95 Q 69.85 75.65 71.25 76.45 Q 74.5 78.1 78.05 78.1 Q 82.35 78.1 85.4 76.65 Q 82.35 78.1 78.05 78.1 Q 74.5 78.1 71.25 76.45 Q 69.85 75.65 68.9 74.95 Q 68.7 72.2 68.7 71.2 Q 68.7 65.1 68.75 61.4 Q 68.85 57.6 69 56.15 Q 69.25 54.05 70.7 45.35 L 71 43.4 Q 71.65 39.7 72.45 35.1 Q 73.4 36.1 74.2 36.4 Q 74.9 36.65 77.1 36.65 Q 78.65 36.65 81.1 36.05 L 81.35 36 L 81.15 36.8 Q 79.9 42.85 79.55 46.9 Q 78.3 47.45 76.7 47.45 Q 75.55 47.45 73.2 46.7 Q 71.15 45.95 70.7 45.35 Q 71.15 45.95 73.2 46.7 Q 75.55 47.45 76.7 47.45 Q 78.3 47.45 79.55 46.9 Q 79.35 48.7 79.35 50.05 Q 79.35 54.4 80.95 61.4 Q 82.4 67.65 85.15 76 L 85.4 76.65 Q 86.7 80.7 87.9 84 Q 92 84.05 96.65 84.65 Q 96.5 85.2 96.35 85.6 Q 96.45 85.2 96.65 84.65 L 98.3 84.9 Q 101.85 85.4 105.7 86.25 Q 113.45 87.85 122.45 90.75 Q 147.9 98.85 147.9 108.95 Q 147.9 110.95 137.55 120.05 Q 134.15 123.1 131.05 125.65 L 131.05 125.65 M 80.25 15.35 L 80.85 15 Q 84.65 12.45 85.6 11.95 Q 84.65 12.45 80.85 15 L 80.25 15.35 L 80.25 15.35 M 89.2 19.65 Q 90.1 19.4 91.6 19 L 91.65 18.95 Q 92.9 18.6 94.55 18.1 Q 97.8 17.15 98.95 17.15 Q 97.8 17.15 94.55 18.1 Q 92.9 18.6 91.65 18.95 L 91.6 19 Q 90.1 19.4 89.2 19.65 L 89.2 19.65 M 89.2 15.95 L 89.2 17.15 L 91.05 17.15 L 89.2 17.15 L 89.2 15.95 Q 84.4 18.05 82.1 18.8 Q 84.4 18.05 89.2 15.95 L 89.2 15.95 M 89.95 27.65 Q 90.1 27.15 91.5 27.15 Q 92.75 27.15 96.1 29.95 Q 97.85 31.35 99.85 33.1 Q 97.85 31.35 96.1 29.95 Q 92.75 27.15 91.5 27.15 Q 90.15 27.15 89.95 27.65 L 89.95 27.65 M 98.1 23.85 Q 99.2 23.85 100.25 23.8 Q 98.6 22.5 96.35 21.3 Q 98.6 22.5 100.25 23.8 Q 99.2 23.85 98.1 23.85 L 98.1 23.85 M 64.25 16.2 L 65.1 15.4 Q 65.55 15.8 66.45 16.2 Q 67.4 16.7 67.85 17.15 Q 67.4 16.7 66.45 16.2 Q 65.55 15.8 65.1 15.4 L 64.25 16.2 L 64.25 16.2 M 63 20.15 Q 63.15 20.3 63.4 20.15 Q 68 20.7 70.6 21.3 Q 68 20.7 63.4 20.15 L 63.3 20.15 L 63 20.15 L 63 20.15 M 67.85 29.75 Q 66.3 29.75 64.8 30.55 L 64.25 30.85 Q 63.2 31.5 62.15 32.5 Q 64.15 32.65 66.1 33.25 Q 64.15 32.65 62.15 32.5 Q 63.2 31.45 64.25 30.85 L 64.8 30.55 Q 66.3 29.75 67.85 29.75 L 67.85 29.75 M 50.1 30.6 L 50.1 28.95 Q 53.95 28.95 60.75 27.15 Q 53.95 28.95 50.1 28.95 L 50.1 30.6 L 50.1 30.6 M 68.75 61.4 Q 70.2 62.75 72.15 63.3 Q 73.5 63.7 74.5 63.65 Q 76 63.65 77.6 63.15 Q 79.55 62.55 80.95 61.4 Q 79.55 62.55 77.6 63.15 Q 76 63.65 74.5 63.65 Q 73.5 63.7 72.15 63.3 Q 70.2 62.75 68.75 61.4 L 68.75 61.4 M 70.1 89.35 Q 70.25 91.6 70.5 93.3 L 70.6 94.15 L 70.5 93.3 Q 70.25 91.6 70.1 89.35 L 70.1 89.35 M 63.4 112.1 Q 63 113.65 61.95 116.45 L 61.9 116.5 Q 61.2 118.3 60.25 120.65 Q 61.2 118.3 61.9 116.5 L 61.95 116.45 Q 63 113.65 63.4 112.1 L 63.4 112.1 M 61.25 116.25 Q 59.05 115.75 56.5 114.5 L 56.25 114.85 Q 54.85 117.2 54.6 117.35 Q 54.85 117.2 56.25 114.85 L 56.5 114.5 Q 59.05 115.75 61.25 116.25 L 61.25 116.25 M 58.2 111.3 Q 57.5 112.65 56.5 114.5 Q 57.5 112.65 58.2 111.3 L 58.2 111.3 M 68.25 112.65 Q 69.2 112.7 71.1 113.05 Q 72.05 113.2 74 113.6 Q 72.05 113.2 71.1 113.05 Q 69.2 112.7 68.25 112.65 L 68.25 112.65 M 67.65 113 Q 67.55 114.4 67.15 116.55 L 67.15 116.65 L 71.95 117.35 L 67.15 116.65 L 67.15 116.55 Q 67.55 114.4 67.65 113 L 67.65 113 M 90.2 90 Q 90.9 89.9 91.05 89.85 Q 90.85 89.9 90.2 90 Q 91.95 94.05 93.3 96.15 Q 91.95 94.05 90.2 90 L 90.2 90 M 77.85 112.55 Q 77.6 113.35 77.3 115.7 Q 77 117.85 76.5 119.05 L 76.5 120.05 Q 80.75 120.05 82.6 120.3 Q 80.7 120.05 76.5 120.05 L 76.5 119.05 Q 77 117.85 77.3 115.7 Q 77.6 113.35 77.85 112.55 L 77.85 112.55 M 83.75 112.1 Q 84 113 84.5 115.5 L 84.6 115.8 L 84.6 115.95 Q 85.1 118.3 85.5 119.35 Q 85.15 117.55 85 115.85 L 85 115.7 L 84.95 114.3 L 84.95 111.85 L 83.75 112.1 L 83.75 112.1 M 84.95 111.85 Q 85.15 111.1 86.65 111.1 Q 89.05 111.1 89.45 113.7 Q 89.45 114.75 88.4 115.2 Q 87.75 115.45 86 115.6 Q 87.75 115.45 88.4 115.2 Q 89.45 114.75 89.45 113.7 Q 89.05 111.1 86.65 111.1 Q 85.15 111.1 84.95 111.85 L 84.95 111.85 M 99.65 115.8 Q 99.6 115.8 99.45 115.9 L 99.15 116.25 L 99.1 116.45 Q 99.7 116.45 100 115.9 Q 99.85 115.75 99.65 115.8 L 99.65 115.8 M 98.4 111.4 Q 98.85 110.6 97.95 110.7 Q 98.85 110.6 98.4 111.4 L 98.4 111.4 M 67.15 116.6 Q 66.85 117.8 66.4 119.95 Q 70 120.6 72.55 121.25 Q 70 120.6 66.4 119.95 Q 66.85 117.8 67.15 116.6 L 67.15 116.6 "/>
    <path stroke="#000000" stroke-opacity="1" stroke-width="1" fill="none" d="M 78.9 15.25 Q 78.5 14.9 78.5 13.6 Q 78.5 8.25 86.25 3.75 Q 92.5 0.15 95.4 0.15 Q 93.35 3.35 89.2 11.1 L 89.2 15.95 L 91.15 15.1 Q 94.2 13.7 98.95 13.7 Q 105.95 13.7 109.75 15.65 Q 112.35 17.05 119.45 22.2 L 119.45 23 Q 113.9 21.3 111.4 21.3 Q 109.7 21.3 106.45 22.6 Q 103.95 23.55 100.25 23.8 Q 102.7 25.7 104 27.95 Q 106.05 31.4 106.05 36.95 Q 106.05 40.6 104.15 43.9 Q 101.95 47.7 98.95 47.45 Q 99.7 41.8 92.95 34.45 Q 85.5 26.5 77.1 28.05 M 75.85 29.75 Q 73.9 30 72.05 30.5 L 71.85 30.6 L 71.7 30.6 Q 70.3 31.05 68.95 31.7 Q 67.45 32.35 66.1 33.25 Q 63.4 34.95 61.1 37.5 Q 58.3 40.6 55.1 46.5 L 53.6 49.25 L 53.6 45.8 Q 57.75 37.9 59.85 35.1 Q 60.55 34.15 61.25 33.4 L 61.8 32.85 L 62 32.65 L 62.15 32.5 L 61.85 32.45 L 61.35 32.45 L 59.9 32.4 Q 55.75 32.4 50.6 33.4 Q 48.2 33.85 45.6 34.55 Q 35.05 37.4 31.75 40.45 L 31.7 40.45 L 31.35 40.8 L 31.35 39.95 Q 37.25 27.8 39.7 25.25 Q 45.15 19.65 57.1 19.65 L 57.95 19.65 Q 59.7 19.75 63 20.2 Q 61.1 18.65 58.2 17.55 L 58.05 17.5 L 57.9 17.4 Q 55.95 16.65 53.5 16.1 Q 51.05 15.45 44.6 14.55 Q 45.5 14.55 45.5 12.8 Q 49.15 10.4 49.9 10.1 Q 51.5 9.45 54.9 9.45 Q 67 9.45 78.15 16.4 L 79.15 17.05 M 106.55 107.1 Q 107.3 107.15 107.85 107.25 Q 108.25 107.25 108.5 107.35 Q 108.8 107.4 109.45 107.8 Q 109.85 107.9 110.35 108.2 Q 112.35 109.4 112.25 112.6 Q 112 115.55 109.9 116.9 M 107.3 111.6 Q 107.25 111.65 105.55 112.15 L 105.45 112.15 Q 104.4 112.35 102.95 112.8 M 131.05 125.65 Q 134.15 123.1 137.55 120.05 Q 147.9 110.95 147.9 108.95 Q 147.9 98.85 122.45 90.75 Q 113.45 87.85 105.7 86.25 Q 101.85 85.4 98.3 84.9 L 96.65 84.65 Q 96.5 85.2 96.35 85.6 M 160.4 113.6 Q 160.35 113.9 160.15 114.3 Q 159.4 115.55 157.3 117.45 Q 154.35 120.05 154.25 120.35 M 153.35 111 Q 151.2 112.3 149.25 115.95 Q 147 120.35 145.3 122.05 M 80.25 15.35 L 80.85 15 Q 84.65 12.45 85.6 11.95 M 89.2 19.65 Q 90.1 19.4 91.6 19 L 91.65 18.95 Q 92.9 18.6 94.55 18.1 Q 97.8 17.15 98.95 17.15 M 89.2 15.95 L 89.2 17.15 L 91.05 17.15 M 89.95 27.65 Q 90.1 27.15 91.5 27.15 Q 92.75 27.15 96.1 29.95 Q 97.85 31.35 99.85 33.1 M 98.1 23.85 Q 99.2 23.85 100.25 23.8 Q 98.6 22.5 96.35 21.3 M 82.1 18.8 Q 84.4 18.05 89.2 15.95 M 64.25 16.2 L 65.1 15.4 Q 65.55 15.8 66.45 16.2 Q 67.4 16.7 67.85 17.15 M 63 20.15 L 63.3 20.15 L 63.4 20.15 Q 68.05 20.7 70.6 21.3 M 63.4 20.15 Q 63.15 20.3 63 20.15 M 72.45 35.1 L 72.65 34.05 L 71.45 34.05 L 72.45 35.1 Q 73.4 36.1 74.2 36.4 Q 74.9 36.65 77.1 36.65 Q 78.65 36.65 81.1 36.05 L 81.35 36 Q 81.65 34.5 81.95 33.2 M 72.75 33.2 L 72.65 33.95 L 72.65 34.05 M 67.85 29.75 Q 66.3 29.75 64.8 30.55 L 64.25 30.85 Q 63.2 31.5 62.15 32.5 Q 64.15 32.65 66.1 33.25 M 72.45 35.1 Q 71.65 39.7 71 43.4 L 70.7 45.35 Q 71.15 45.9 73.2 46.7 Q 75.55 47.45 76.7 47.45 Q 78.3 47.45 79.55 46.85 Q 79.9 42.85 81.15 36.8 L 81.35 36 M 70.7 45.35 L 70.6 45 Q 70.6 43.7 71 43.4 M 68.75 61.4 Q 68.85 57.6 69 56.15 Q 69.25 54.05 70.7 45.35 M 84.7 34.85 Q 83.4 35.45 81.35 36 M 79.55 46.85 Q 79.35 48.7 79.35 50.05 Q 79.35 54.4 80.95 61.4 Q 81.6 60.85 82.1 60.25 M 79.55 46.85 Q 80.4 46.45 81.1 45.8 M 50.1 30.6 L 50.1 28.95 Q 53.95 28.95 60.75 27.15 M 68.75 61.4 Q 70.2 62.75 72.15 63.3 Q 73.5 63.7 74.5 63.65 Q 76 63.65 77.6 63.15 Q 79.55 62.55 80.95 61.4 M 85.4 76.65 Q 87 75.9 88.3 74.65 M 70.1 89.35 Q 72.9 89.75 80.55 89.9 Q 87.9 90.05 90.2 90 Q 89.05 87.4 87.9 84 L 86.45 83.95 M 85.4 76.65 L 85.15 76 Q 82.4 67.65 80.95 61.4 M 68.9 74.95 Q 69.85 75.65 71.25 76.4 Q 74.5 78.1 78.05 78.1 Q 82.35 78.1 85.4 76.65 Q 86.7 80.7 87.9 84 Q 92 84.05 96.65 84.65 M 68.75 61.4 Q 68.7 65.1 68.7 71.2 Q 68.7 72.2 68.9 74.95 Q 69 77.25 69.35 80.95 Q 69.5 83.4 69.7 85.6 Q 69.9 87.6 70.1 89.35 Q 70.25 91.6 70.5 93.3 L 70.6 94.15 M 67.85 60.25 L 68.75 61.4 M 67.85 73.8 Q 68.2 74.35 68.9 74.95 M 68.7 89.05 Q 69.15 89.2 70.1 89.35 M 63.4 112.1 Q 63 113.65 61.95 116.45 L 61.9 116.5 Q 61.2 118.3 60.25 120.65 M 61.25 116.25 Q 59.05 115.75 56.5 114.5 L 56.25 114.85 Q 54.85 117.2 54.6 117.35 M 58.2 111.3 Q 57.5 112.65 56.5 114.5 M 68.25 112.65 Q 69.2 112.7 71.1 113.05 Q 72.05 113.2 74 113.6 M 67.65 113 Q 67.55 114.4 67.15 116.55 L 67.15 116.65 L 71.95 117.35 M 90.2 90 Q 90.9 89.9 91.05 89.85 M 90.2 90 Q 91.95 94.05 93.3 96.15 M 77.85 112.55 Q 77.6 113.35 77.3 115.7 Q 77 117.85 76.5 119.05 L 76.5 120.05 Q 80.75 120.05 82.6 120.3 M 83.75 112.1 Q 84 113 84.5 115.5 L 84.6 115.8 L 84.6 115.95 Q 85.1 118.3 85.5 119.35 Q 85.15 117.55 85 115.85 L 85 115.7 L 84.95 114.3 L 84.95 111.85 Q 85.15 111.1 86.65 111.1 Q 89.05 111.1 89.45 113.7 Q 89.45 114.75 88.4 115.2 Q 87.75 115.45 86 115.6 M 99.65 115.8 Q 99.6 115.8 99.45 115.9 L 99.15 116.25 L 99.1 116.45 Q 99.7 116.45 100 115.9 Q 99.85 115.75 99.65 115.8 L 99.65 115.8 M 98.4 111.4 Q 98.85 110.6 97.95 110.7 M 69.7 85.6 Q 68.7 87.35 68.7 89.05 Q 55.95 91.45 40.8 100.45 Q 21.5 111.9 21.5 120.35 Q 21.5 133.9 50.95 139 Q 65.85 141.55 86 141.55 Q 102.95 141.55 105.4 141.1 Q 113.05 139.65 123.95 131.3 Q 125.85 129.8 128 128.1 Q 129.35 127.05 130.8 125.85 M 67.15 116.6 Q 66.85 117.8 66.4 119.95 Q 70 120.6 72.55 121.25 M 16.15 128 L 15.3 128 L 15.3 133.9 Q 16.35 134.55 17.85 135.95 Q 19.3 137.1 21.5 137.35 M 5.75 130.85 Q 6.75 132.55 8.2 135.35 Q 9.55 137.55 11.75 137.35 M 1.9 133.1 Q 0.6 133.75 0.4 134.1 Q 0.15 134.45 0.15 136 Q 0.15 138.6 1.95 139.95 Q 3.05 140.8 5.5 141.55 M 167.5 114.45 Q 166.9 116.9 164.4 119.15 Q 163.85 119.65 160.4 122.05 "/>
  </g>
  <g transform="matrix(1, 0, 0, 1, 340, 87)">
    <path stroke="none" fill="#ffffff" fill-opacity="1" d="M 200.65 76.15 Q 200.65 84.7 201.9 91.9 Q 203.1 99.5 203.1 104.7 Q 203.1 106.75 201.5 135.65 Q 200.65 137.45 200.65 142.5 Q 200.65 147.85 201.9 154.7 Q 203.1 161.2 203.1 169.15 Q 203.1 182.85 198.45 183.95 Q 187.1 184.5 173.7 186.35 Q 164.4 187.5 146.35 187.1 Q 129.95 186.35 128.75 186.35 Q 117.4 186.35 84.95 184.5 Q 59.4 182.85 40.75 183.95 Q 28.6 184.9 5.1 182.85 Q 2.05 162.3 2.05 134.15 Q 4.7 91.55 4.7 73.55 Q 3.5 60.25 4.7 53 Q 5.1 51.15 5.5 49.85 L 5.5 46.9 Q 5.5 44.3 5.5 41.55 Q 5.5 17.45 6.35 1.9 Q 25.15 2.65 61.45 4.1 Q 84.15 5.4 100.95 5.4 Q 105.2 5.4 109.25 5.4 Q 127.1 5.05 130.35 3.75 Q 134.6 2.65 139.25 2.65 Q 143.95 2.65 203.1 8.35 L 204.7 19.5 Q 204.7 28.95 202.7 48 Q 200.65 67.1 200.65 76.15 L 200.65 76.15 "/>
    <path stroke="#000000" stroke-opacity="1" stroke-width="1" fill="none" d="M 201.9 91.9 Q 203.1 99.5 203.1 104.7 Q 203.1 106.75 201.5 135.65 Q 200.65 137.45 200.65 142.5 Q 200.65 147.85 201.9 154.7 Q 203.1 161.2 203.1 169.15 Q 203.1 182.85 198.45 183.95 Q 187.1 184.5 173.7 186.35 Q 164.4 187.5 146.35 187.1 Q 129.95 186.35 128.75 186.35 Q 117.4 186.35 84.95 184.5 Q 59.4 182.85 40.75 183.95 Q 28.6 184.9 5.1 182.85 Q 2.05 162.3 2.05 134.15 Q 4.7 91.55 4.7 73.55 Q 3.5 60.25 4.7 53 Q 5.1 51.15 5.5 49.85 L 5.5 46.9 Q 5.5 44.3 5.5 41.55 Q 5.5 17.45 6.35 1.9 Q 25.15 2.65 61.45 4.1 Q 84.15 5.4 100.95 5.4 Q 105.2 5.4 109.25 5.4 Q 127.1 5.05 130.35 3.75 Q 134.6 2.65 139.25 2.65 Q 143.95 2.65 203.1 8.35 L 204.7 19.5 Q 204.7 28.95 202.7 48 Q 200.65 67.1 200.65 76.15 Q 200.65 84.7 201.9 91.9 M 200.65 76.15 L 200.65 76.15 "/>
  </g>
  <g transform="matrix(1, 0, 0, 1, 358.5, 106.25)">
    <path stroke="none" fill="#ffffff" fill-opacity="1" d="M 31.75 40.4 L 31.35 39.95 Q 37.25 27.8 39.7 25.25 Q 45.15 19.65 57.15 19.65 L 57.95 19.65 Q 59.7 19.75 63 20.15 Q 61.1 18.65 58.2 17.55 L 58.05 17.45 Q 58 17.45 57.9 17.4 Q 55.95 16.65 53.5 16.1 Q 51.05 15.45 44.6 14.55 Q 45.5 14.55 45.5 12.75 Q 49.15 10.4 49.9 10.1 Q 51.5 9.45 54.9 9.45 Q 67 9.45 78.15 16.4 L 79.15 17.05 L 80.2 15.35 L 78.9 15.25 Q 78.5 14.9 78.5 13.6 Q 78.5 8.25 86.25 3.75 Q 92.5 0.15 95.4 0.15 Q 93.35 3.35 89.2 11.1 L 89.2 15.95 L 91.1 15.1 Q 94.15 13.7 98.95 13.7 Q 105.95 13.7 109.75 15.65 Q 112.35 17.05 119.45 22.2 L 119.45 23 Q 113.9 21.3 111.4 21.3 Q 109.65 21.3 106.45 22.6 Q 103.95 23.55 100.25 23.8 Q 102.7 25.7 104 27.95 Q 106.05 31.4 106.05 36.95 Q 106.05 40.6 104.15 43.9 Q 101.95 47.7 98.95 47.45 Q 99.7 41.8 92.95 34.45 Q 85.5 26.5 77.1 28.05 L 75.85 29.75 Q 73.9 29.95 72.05 30.5 L 71.8 30.6 L 71.7 30.6 Q 70.25 31.05 68.95 31.7 Q 67.45 32.35 66.1 33.25 Q 63.4 34.95 61.1 37.5 Q 58.3 40.6 55.05 46.5 L 53.6 45.8 Q 57.75 37.85 59.85 35.1 L 61.25 33.35 L 61.8 32.85 L 62 32.65 L 62.15 32.5 Q 62 32.5 61.8 32.45 L 61.3 32.45 L 59.9 32.4 Q 55.7 32.4 50.6 33.4 Q 48.2 33.85 45.6 34.55 Q 35.05 37.4 31.75 40.4 L 31.75 40.4 M 106.55 107.1 Q 107.3 107.15 107.85 107.25 Q 108.25 107.25 108.5 107.35 Q 108.8 107.4 109.45 107.8 Q 109.85 107.9 110.35 108.2 Q 112.35 109.4 112.25 112.6 Q 112 115.55 109.9 116.9 Q 111.95 115.55 112.25 112.6 Q 112.35 109.4 110.35 108.2 Q 109.85 107.9 109.45 107.8 Q 108.8 107.4 108.5 107.35 Q 108.25 107.25 107.85 107.25 Q 107.3 107.15 106.55 107.1 L 106.55 107.1 M 107.3 111.6 Q 107.25 111.65 105.55 112.15 L 105.45 112.15 Q 104.4 112.35 102.95 112.8 Q 104.4 112.35 105.45 112.15 L 105.55 112.15 Q 107.25 111.65 107.3 111.6 L 107.3 111.6 M 131.05 125.65 L 130.8 125.85 Q 129.35 127.05 128 128.1 Q 125.85 129.8 123.95 131.3 Q 113.05 139.65 105.4 141.1 Q 102.95 141.55 86 141.55 Q 65.85 141.55 50.95 139 Q 21.5 133.9 21.5 120.35 Q 21.5 111.9 40.8 100.45 Q 55.95 91.45 68.7 89.05 Q 69.15 89.2 70.1 89.35 Q 72.9 89.75 80.55 89.9 Q 87.9 90.05 90.2 90 Q 89.05 87.4 87.9 84 L 86.45 83.95 L 87.9 84 Q 89.05 87.4 90.2 90 Q 87.9 90.05 80.55 89.9 Q 72.9 89.75 70.1 89.35 Q 69.9 87.6 69.7 85.6 Q 69.5 83.4 69.35 80.95 Q 69 77.25 68.9 74.95 Q 69.85 75.65 71.25 76.45 Q 74.5 78.1 78.05 78.1 Q 82.35 78.1 85.4 76.65 Q 82.35 78.1 78.05 78.1 Q 74.5 78.1 71.25 76.45 Q 69.85 75.65 68.9 74.95 Q 68.7 72.2 68.7 71.2 Q 68.7 65.1 68.75 61.4 Q 68.85 57.6 69 56.15 Q 69.25 54.05 70.7 45.35 L 71 43.4 Q 71.65 39.7 72.45 35.1 Q 73.4 36.1 74.2 36.4 Q 74.9 36.65 77.1 36.65 Q 78.65 36.65 81.1 36.05 L 81.35 36 L 81.15 36.8 Q 79.9 42.85 79.55 46.9 Q 78.3 47.45 76.7 47.45 Q 75.55 47.45 73.2 46.7 Q 71.15 45.95 70.7 45.35 Q 71.15 45.95 73.2 46.7 Q 75.55 47.45 76.7 47.45 Q 78.3 47.45 79.55 46.9 Q 79.35 48.7 79.35 50.05 Q 79.35 54.4 80.95 61.4 Q 82.4 67.65 85.15 76 L 85.4 76.65 Q 86.7 80.7 87.9 84 Q 92 84.05 96.65 84.65 Q 96.5 85.2 96.35 85.6 Q 96.45 85.2 96.65 84.65 L 98.3 84.9 Q 101.85 85.4 105.7 86.25 Q 113.45 87.85 122.45 90.75 Q 147.9 98.85 147.9 108.95 Q 147.9 110.95 137.55 120.05 Q 134.15 123.1 131.05 125.65 L 131.05 125.65 M 80.25 15.35 L 80.85 15 Q 84.65 12.45 85.6 11.95 Q 84.65 12.45 80.85 15 L 80.25 15.35 L 80.25 15.35 M 89.2 19.65 Q 90.1 19.4 91.6 19 L 91.65 18.95 Q 92.9 18.6 94.55 18.1 Q 97.8 17.15 98.95 17.15 Q 97.8 17.15 94.55 18.1 Q 92.9 18.6 91.65 18.95 L 91.6 19 Q 90.1 19.4 89.2 19.65 L 89.2 19.65 M 89.2 15.95 L 89.2 17.15 L 91.05 17.15 L 89.2 17.15 L 89.2 15.95 Q 84.4 18.05 82.1 18.8 Q 84.4 18.05 89.2 15.95 L 89.2 15.95 M 89.95 27.65 Q 90.1 27.15 91.5 27.15 Q 92.75 27.15 96.1 29.95 Q 97.85 31.35 99.85 33.1 Q 97.85 31.35 96.1 29.95 Q 92.75 27.15 91.5 27.15 Q 90.15 27.15 89.95 27.65 L 89.95 27.65 M 98.1 23.85 Q 99.2 23.85 100.25 23.8 Q 98.6 22.5 96.35 21.3 Q 98.6 22.5 100.25 23.8 Q 99.2 23.85 98.1 23.85 L 98.1 23.85 M 64.25 16.2 L 65.1 15.4 Q 65.55 15.8 66.45 16.2 Q 67.4 16.7 67.85 17.15 Q 67.4 16.7 66.45 16.2 Q 65.55 15.8 65.1 15.4 L 64.25 16.2 L 64.25 16.2 M 63 20.15 Q 63.15 20.3 63.4 20.15 Q 68 20.7 70.6 21.3 Q 68 20.7 63.4 20.15 L 63.3 20.15 L 63 20.15 L 63 20.15 M 67.85 29.75 Q 66.3 29.75 64.8 30.55 L 64.25 30.85 Q 63.2 31.5 62.15 32.5 Q 64.15 32.65 66.1 33.25 Q 64.15 32.65 62.15 32.5 Q 63.2 31.45 64.25 30.85 L 64.8 30.55 Q 66.3 29.75 67.85 29.75 L 67.85 29.75 M 50.1 30.6 L 50.1 28.95 Q 53.95 28.95 60.75 27.15 Q 53.95 28.95 50.1 28.95 L 50.1 30.6 L 50.1 30.6 M 68.75 61.4 Q 70.2 62.75 72.15 63.3 Q 73.5 63.7 74.5 63.65 Q 76 63.65 77.6 63.15 Q 79.55 62.55 80.95 61.4 Q 79.55 62.55 77.6 63.15 Q 76 63.65 74.5 63.65 Q 73.5 63.7 72.15 63.3 Q 70.2 62.75 68.75 61.4 L 68.75 61.4 M 70.1 89.35 Q 70.25 91.6 70.5 93.3 L 70.6 94.15 L 70.5 93.3 Q 70.25 91.6 70.1 89.35 L 70.1 89.35 M 63.4 112.1 Q 63 113.65 61.95 116.45 L 61.9 116.5 Q 61.2 118.3 60.25 120.65 Q 61.2 118.3 61.9 116.5 L 61.95 116.45 Q 63 113.65 63.4 112.1 L 63.4 112.1 M 61.25 116.25 Q 59.05 115.75 56.5 114.5 L 56.25 114.85 Q 54.85 117.2 54.6 117.35 Q 54.85 117.2 56.25 114.85 L 56.5 114.5 Q 59.05 115.75 61.25 116.25 L 61.25 116.25 M 58.2 111.3 Q 57.5 112.65 56.5 114.5 Q 57.5 112.65 58.2 111.3 L 58.2 111.3 M 68.25 112.65 Q 69.2 112.7 71.1 113.05 Q 72.05 113.2 74 113.6 Q 72.05 113.2 71.1 113.05 Q 69.2 112.7 68.25 112.65 L 68.25 112.65 M 67.65 113 Q 67.55 114.4 67.15 116.55 L 67.15 116.65 L 71.95 117.35 L 67.15 116.65 L 67.15 116.55 Q 67.55 114.4 67.65 113 L 67.65 113 M 90.2 90 Q 90.9 89.9 91.05 89.85 Q 90.85 89.9 90.2 90 Q 91.95 94.05 93.3 96.15 Q 91.95 94.05 90.2 90 L 90.2 90 M 77.85 112.55 Q 77.6 113.35 77.3 115.7 Q 77 117.85 76.5 119.05 L 76.5 120.05 Q 80.75 120.05 82.6 120.3 Q 80.7 120.05 76.5 120.05 L 76.5 119.05 Q 77 117.85 77.3 115.7 Q 77.6 113.35 77.85 112.55 L 77.85 112.55 M 83.75 112.1 Q 84 113 84.5 115.5 L 84.6 115.8 L 84.6 115.95 Q 85.1 118.3 85.5 119.35 Q 85.15 117.55 85 115.85 L 85 115.7 L 84.95 114.3 L 84.95 111.85 L 83.75 112.1 L 83.75 112.1 M 84.95 111.85 Q 85.15 111.1 86.65 111.1 Q 89.05 111.1 89.45 113.7 Q 89.45 114.75 88.4 115.2 Q 87.75 115.45 86 115.6 Q 87.75 115.45 88.4 115.2 Q 89.45 114.75 89.45 113.7 Q 89.05 111.1 86.65 111.1 Q 85.15 111.1 84.95 111.85 L 84.95 111.85 M 99.65 115.8 Q 99.6 115.8 99.45 115.9 L 99.15 116.25 L 99.1 116.45 Q 99.7 116.45 100 115.9 Q 99.85 115.75 99.65 115.8 L 99.65 115.8 M 98.4 111.4 Q 98.85 110.6 97.95 110.7 Q 98.85 110.6 98.4 111.4 L 98.4 111.4 M 67.15 116.6 Q 66.85 117.8 66.4 119.95 Q 70 120.6 72.55 121.25 Q 70 120.6 66.4 119.95 Q 66.85 117.8 67.15 116.6 L 67.15 116.6 "/>
    <path stroke="#000000" stroke-opacity="1" stroke-width="1" fill="none" d="M 78.9 15.25 Q 78.5 14.9 78.5 13.6 Q 78.5 8.25 86.25 3.75 Q 92.5 0.15 95.4 0.15 Q 93.35 3.35 89.2 11.1 L 89.2 15.95 L 91.15 15.1 Q 94.2 13.7 98.95 13.7 Q 105.95 13.7 109.75 15.65 Q 112.35 17.05 119.45 22.2 L 119.45 23 Q 113.9 21.3 111.4 21.3 Q 109.7 21.3 106.45 22.6 Q 103.95 23.55 100.25 23.8 Q 102.7 25.7 104 27.95 Q 106.05 31.4 106.05 36.95 Q 106.05 40.6 104.15 43.9 Q 101.95 47.7 98.95 47.45 Q 99.7 41.8 92.95 34.45 Q 85.5 26.5 77.1 28.05 M 75.85 29.75 Q 73.9 30 72.05 30.5 L 71.85 30.6 L 71.7 30.6 Q 70.3 31.05 68.95 31.7 Q 67.45 32.35 66.1 33.25 Q 63.4 34.95 61.1 37.5 Q 58.3 40.6 55.1 46.5 L 53.6 49.25 L 53.6 45.8 Q 57.75 37.9 59.85 35.1 Q 60.55 34.15 61.25 33.4 L 61.8 32.85 L 62 32.65 L 62.15 32.5 L 61.85 32.45 L 61.35 32.45 L 59.9 32.4 Q 55.75 32.4 50.6 33.4 Q 48.2 33.85 45.6 34.55 Q 35.05 37.4 31.75 40.45 L 31.7 40.45 L 31.35 40.8 L 31.35 39.95 Q 37.25 27.8 39.7 25.25 Q 45.15 19.65 57.1 19.65 L 57.95 19.65 Q 59.7 19.75 63 20.2 Q 61.1 18.65 58.2 17.55 L 58.05 17.5 L 57.9 17.4 Q 55.95 16.65 53.5 16.1 Q 51.05 15.45 44.6 14.55 Q 45.5 14.55 45.5 12.8 Q 49.15 10.4 49.9 10.1 Q 51.5 9.45 54.9 9.45 Q 67 9.45 78.15 16.4 L 79.15 17.05 M 106.55 107.1 Q 107.3 107.15 107.85 107.25 Q 108.25 107.25 108.5 107.35 Q 108.8 107.4 109.45 107.8 Q 109.85 107.9 110.35 108.2 Q 112.35 109.4 112.25 112.6 Q 112 115.55 109.9 116.9 M 107.3 111.6 Q 107.25 111.65 105.55 112.15 L 105.45 112.15 Q 104.4 112.35 102.95 112.8 M 131.05 125.65 Q 134.15 123.1 137.55 120.05 Q 147.9 110.95 147.9 108.95 Q 147.9 98.85 122.45 90.75 Q 113.45 87.85 105.7 86.25 Q 101.85 85.4 98.3 84.9 L 96.65 84.65 Q 96.5 85.2 96.35 85.6 M 160.4 113.6 Q 160.35 113.9 160.15 114.3 Q 159.4 115.55 157.3 117.45 Q 154.35 120.05 154.25 120.35 M 153.35 111 Q 151.2 112.3 149.25 115.95 Q 147 120.35 145.3 122.05 M 80.25 15.35 L 80.85 15 Q 84.65 12.45 85.6 11.95 M 89.2 19.65 Q 90.1 19.4 91.6 19 L 91.65 18.95 Q 92.9 18.6 94.55 18.1 Q 97.8 17.15 98.95 17.15 M 89.2 15.95 L 89.2 17.15 L 91.05 17.15 M 89.95 27.65 Q 90.1 27.15 91.5 27.15 Q 92.75 27.15 96.1 29.95 Q 97.85 31.35 99.85 33.1 M 98.1 23.85 Q 99.2 23.85 100.25 23.8 Q 98.6 22.5 96.35 21.3 M 82.1 18.8 Q 84.4 18.05 89.2 15.95 M 64.25 16.2 L 65.1 15.4 Q 65.55 15.8 66.45 16.2 Q 67.4 16.7 67.85 17.15 M 63 20.15 L 63.3 20.15 L 63.4 20.15 Q 68.05 20.7 70.6 21.3 M 63.4 20.15 Q 63.15 20.3 63 20.15 M 72.45 35.1 L 72.65 34.05 L 71.45 34.05 L 72.45 35.1 Q 73.4 36.1 74.2 36.4 Q 74.9 36.65 77.1 36.65 Q 78.65 36.65 81.1 36.05 L 81.35 36 Q 81.65 34.5 81.95 33.2 M 72.75 33.2 L 72.65 33.95 L 72.65 34.05 M 67.85 29.75 Q 66.3 29.75 64.8 30.55 L 64.25 30.85 Q 63.2 31.5 62.15 32.5 Q 64.15 32.65 66.1 33.25 M 72.45 35.1 Q 71.65 39.7 71 43.4 L 70.7 45.35 Q 71.15 45.9 73.2 46.7 Q 75.55 47.45 76.7 47.45 Q 78.3 47.45 79.55 46.85 Q 79.9 42.85 81.15 36.8 L 81.35 36 M 70.7 45.35 L 70.6 45 Q 70.6 43.7 71 43.4 M 68.75 61.4 Q 68.85 57.6 69 56.15 Q 69.25 54.05 70.7 45.35 M 84.7 34.85 Q 83.4 35.45 81.35 36 M 79.55 46.85 Q 79.35 48.7 79.35 50.05 Q 79.35 54.4 80.95 61.4 Q 81.6 60.85 82.1 60.25 M 79.55 46.85 Q 80.4 46.45 81.1 45.8 M 50.1 30.6 L 50.1 28.95 Q 53.95 28.95 60.75 27.15 M 68.75 61.4 Q 70.2 62.75 72.15 63.3 Q 73.5 63.7 74.5 63.65 Q 76 63.65 77.6 63.15 Q 79.55 62.55 80.95 61.4 M 85.4 76.65 Q 87 75.9 88.3 74.65 M 70.1 89.35 Q 72.9 89.75 80.55 89.9 Q 87.9 90.05 90.2 90 Q 89.05 87.4 87.9 84 L 86.45 83.95 M 85.4 76.65 L 85.15 76 Q 82.4 67.65 80.95 61.4 M 68.9 74.95 Q 69.85 75.65 71.25 76.4 Q 74.5 78.1 78.05 78.1 Q 82.35 78.1 85.4 76.65 Q 86.7 80.7 87.9 84 Q 92 84.05 96.65 84.65 M 68.75 61.4 Q 68.7 65.1 68.7 71.2 Q 68.7 72.2 68.9 74.95 Q 69 77.25 69.35 80.95 Q 69.5 83.4 69.7 85.6 Q 69.9 87.6 70.1 89.35 Q 70.25 91.6 70.5 93.3 L 70.6 94.15 M 67.85 60.25 L 68.75 61.4 M 67.85 73.8 Q 68.2 74.35 68.9 74.95 M 68.7 89.05 Q 69.15 89.2 70.1 89.35 M 63.4 112.1 Q 63 113.65 61.95 116.45 L 61.9 116.5 Q 61.2 118.3 60.25 120.65 M 61.25 116.25 Q 59.05 115.75 56.5 114.5 L 56.25 114.85 Q 54.85 117.2 54.6 117.35 M 58.2 111.3 Q 57.5 112.65 56.5 114.5 M 68.25 112.65 Q 69.2 112.7 71.1 113.05 Q 72.05 113.2 74 113.6 M 67.65 113 Q 67.55 114.4 67.15 116.55 L 67.15 116.65 L 71.95 117.35 M 90.2 90 Q 90.9 89.9 91.05 89.85 M 90.2 90 Q 91.95 94.05 93.3 96.15 M 77.85 112.55 Q 77.6 113.35 77.3 115.7 Q 77 117.85 76.5 119.05 L 76.5 120.05 Q 80.75 120.05 82.6 120.3 M 83.75 112.1 Q 84 113 84.5 115.5 L 84.6 115.8 L 84.6 115.95 Q 85.1 118.3 85.5 119.35 Q 85.15 117.55 85 115.85 L 85 115.7 L 84.95 114.3 L 84.95 111.85 Q 85.15 111.1 86.65 111.1 Q 89.05 111.1 89.45 113.7 Q 89.45 114.75 88.4 115.2 Q 87.75 115.45 86 115.6 M 99.65 115.8 Q 99.6 115.8 99.45 115.9 L 99.15 116.25 L 99.1 116.45 Q 99.7 116.45 100 115.9 Q 99.85 115.75 99.65 115.8 L 99.65 115.8 M 98.4 111.4 Q 98.85 110.6 97.95 110.7 M 69.7 85.6 Q 68.7 87.35 68.7 89.05 Q 55.95 91.45 40.8 100.45 Q 21.5 111.9 21.5 120.35 Q 21.5 133.9 50.95 139 Q 65.85 141.55 86 141.55 Q 102.95 141.55 105.4 141.1 Q 113.05 139.65 123.95 131.3 Q 125.85 129.8 128 128.1 Q 129.35 127.05 130.8 125.85 M 67.15 116.6 Q 66.85 117.8 66.4 119.95 Q 70 120.6 72.55 121.25 M 16.15 128 L 15.3 128 L 15.3 133.9 Q 16.35 134.55 17.85 135.95 Q 19.3 137.1 21.5 137.35 M 5.75 130.85 Q 6.75 132.55 8.2 135.35 Q 9.55 137.55 11.75 137.35 M 1.9 133.1 Q 0.6 133.75 0.4 134.1 Q 0.15 134.45 0.15 136 Q 0.15 138.6 1.95 139.95 Q 3.05 140.8 5.5 141.55 M 167.5 114.45 Q 166.9 116.9 164.4 119.15 Q 163.85 119.65 160.4 122.05 "/>
  </g>
  <g transform="matrix(1, 0, 0, 1, 429, 164.25)">
    <path stroke="none" fill="#000000" fill-opacity="1" d="M 22.8 4.6 Q 26.2 8.5 26.2 13.45 Q 26.2 16.2 25 18.9 Q 23.9 21.25 22.25 23 Q 20.75 24.55 18.2 25.75 Q 15.3 27.2 12.75 27.2 Q 9.6 27.2 8.05 26.35 Q 6.6 25.6 4.85 23.75 Q 3.1 21.95 1.7 19.15 Q 0.3 16.35 0.3 12.85 Q 0.3 9.4 2.3 6.25 Q 3.65 4.25 6 2.75 L 6.2 2.65 Q 7.55 1.8 9.3 1.15 L 9.9 0.8 Q 11.65 0.3 13.45 0.3 Q 19.05 0.3 22.8 4.6 L 22.8 4.6 "/>
    <path stroke="#000000" stroke-opacity="1" stroke-width="1" fill="none" d="M 13.45 0.3 Q 11.65 0.3 9.9 0.8 L 9.3 1.15 Q 7.55 1.8 6.2 2.65 L 6 2.75 Q 3.65 4.25 2.3 6.25 Q 0.3 9.4 0.3 12.85 Q 0.3 16.35 1.7 19.15 Q 3.1 21.95 4.85 23.75 Q 6.6 25.6 8.05 26.35 Q 9.6 27.2 12.75 27.2 Q 15.3 27.2 18.2 25.75 Q 20.75 24.55 22.25 23 Q 23.9 21.25 25 18.9 Q 26.2 16.2 26.2 13.45 Q 26.2 8.5 22.8 4.6 Q 19.05 0.3 13.45 0.3 M 22.8 4.6 L 22.8 4.6 M 9.9 0.8 L 9.25 1 Q 7.3 1.65 6.2 2.65 "/>
  </g>
  <g transform="matrix(1, 0, 0, 1, 77.5, 165.25)">
    <path stroke="none" fill="#000000" fill-opacity="1" d="M 22.8 4.6 Q 26.2 8.5 26.2 13.45 Q 26.2 16.2 25 18.9 Q 23.9 21.25 22.25 23 Q 20.75 24.55 18.2 25.75 Q 15.3 27.2 12.75 27.2 Q 9.6 27.2 8.05 26.35 Q 6.6 25.6 4.85 23.75 Q 3.1 21.95 1.7 19.15 Q 0.3 16.35 0.3 12.85 Q 0.3 9.4 2.3 6.25 Q 3.65 4.25 6 2.75 L 6.2 2.65 Q 7.55 1.8 9.3 1.15 L 9.9 0.8 Q 11.65 0.3 13.45 0.3 Q 19.05 0.3 22.8 4.6 L 22.8 4.6 "/>
    <path stroke="#000000" stroke-opacity="1" stroke-width="1" fill="none" d="M 13.45 0.3 Q 11.65 0.3 9.9 0.8 L 9.3 1.15 Q 7.55 1.8 6.2 2.65 L 6 2.75 Q 3.65 4.25 2.3 6.25 Q 0.3 9.4 0.3 12.85 Q 0.3 16.35 1.7 19.15 Q 3.1 21.95 4.85 23.75 Q 6.6 25.6 8.05 26.35 Q 9.6 27.2 12.75 27.2 Q 15.3 27.2 18.2 25.75 Q 20.75 24.55 22.25 23 Q 23.9 21.25 25 18.9 Q 26.2 16.2 26.2 13.45 Q 26.2 8.5 22.8 4.6 Q 19.05 0.3 13.45 0.3 M 22.8 4.6 L 22.8 4.6 M 9.9 0.8 L 9.25 1 Q 7.3 1.65 6.2 2.65 "/>
  </g>
</svg>